:FULLY-SPECIFIED
:FORCE-ALL-JOINTS-BE-3DOF
:DEGREES
408
root 7.37684 13.7409 -34.0721 156.048 74.2325 149.236
lfemur 15.0524 -2.5195 -8.67305
ltibia 30.0527 0 0
lfoot -23.0467 32.3799 0
ltoes -24.1977 0 0
rfemur -67.4095 -15.7554 7.96131
rtibia 81.1891 0 0
rfoot -14.0747 13.6636 0
rtoes 2.72155 0 0
lowerback 8.89484 5.30993 -10.3937
upperback -2.43207 5.78273 -1.62732
thorax -8.56745 3.30165 3.03046
lowerneck 0.210697 -11.8547 -10.7675
upperneck 2.506 -16.0411 9.37081
head 2.31449 -8.00038 3.95848
lclavicle 3.23876e-14 8.14734e-15 0
lhumerus -71.1763 -19.9416 106.851
lradius 100.379 0 0
lwrist 51.0117 0 0
lhand -9.39313 43.8391 0
lfingers 7.12502 0 0
lthumb 16.5684 73.1573 0
rclavicle 3.23876e-14 8.14734e-15 0
rhumerus 50.4241 -7.1567 -61.2034
rradius 15.1856 0 0
rwrist 20.8803 0 0
rhand -23.3481 -36.0264 0
rfingers 7.12502 0 0
rthumb 3.1437 -66.4111 0
409
root 7.38332 13.7386 -34.0646 156.132 74.173 149.306
lfemur 14.7199 -2.54436 -8.5236
ltibia 30.6515 0 0
lfoot -23.0903 32.3705 0
ltoes -23.8481 0 0
rfemur -67.4185 -15.7397 7.98376
rtibia 81.2376 0 0
rfoot -14.0413 13.7194 0
rtoes 2.31482 0 0
lowerback 8.91748 5.30207 -10.2821
upperback -2.43301 5.78189 -1.61417
thorax -8.57487 3.29595 2.97976
lowerneck 0.191875 -11.8427 -10.7649
upperneck 2.46467 -16.0208 9.37869
head 2.30255 -7.98949 3.96219
lclavicle 3.11125e-14 7.38339e-15 0
lhumerus -71.2993 -19.9219 106.92
lradius 100.384 0 0
lwrist 51.0774 0 0
lhand -9.40935 43.8532 0
lfingers 7.12502 0 0
lthumb 16.5528 73.1725 0
rclavicle 3.11125e-14 7.38339e-15 0
rhumerus 50.4611 -7.23469 -61.2074
rradius 14.9089 0 0
rwrist 20.9001 0 0
rhand -23.4858 -36.1014 0
rfingers 7.12502 0 0
rthumb 3.01316 -66.516 0
410
root 7.38796 13.7367 -34.0577 156.247 74.1164 149.41
lfemur 14.3763 -2.57159 -8.37624
ltibia 31.2656 0 0
lfoot -23.1365 32.3629 0
ltoes -23.4923 0 0
rfemur -67.4221 -15.7204 8.00817
rtibia 81.2709 0 0
rfoot -14.0021 13.7695 0
rtoes 1.91251 0 0
lowerback 8.94312 5.29228 -10.1694
upperback -2.43289 5.77849 -1.599
thorax -8.58232 3.28897 2.93114
lowerneck 0.173868 -11.831 -10.7634
upperneck 2.4225 -16.001 9.38824
head 2.29058 -7.97895 3.96656
lclavicle 2.98108e-14 6.60373e-15 0
lhumerus -71.4153 -19.9072 106.988
lradius 100.389 0 0
lwrist 51.1395 0 0
lhand -9.42676 43.8641 0
lfingers 7.12502 0 0
lthumb 16.536 73.1847 0
rclavicle 2.98108e-14 6.60373e-15 0
rhumerus 50.4942 -7.30548 -61.2049
rradius 14.654 0 0
rwrist 20.9082 0 0
rhand -23.6149 -36.1725 0
rfingers 7.12502 0 0
rthumb 2.89067 -66.6151 0
411
root 7.39062 13.7352 -34.0516 156.397 74.0632 149.551
lfemur 14.0223 -2.60121 -8.23181
ltibia 31.8935 0 0
lfoot -23.1851 32.357 0
ltoes -23.1321 0 0
rfemur -67.4197 -15.6974 8.03461
rtibia 81.2877 0 0
rfoot -13.9576 13.8125 0
rtoes 1.51607 0 0
lowerback 8.97179 5.28037 -10.0561
upperback -2.43164 5.77228 -1.58169
thorax -8.58971 3.2806 2.88503
lowerneck 0.156941 -11.8198 -10.7632
upperneck 2.37966 -15.9822 9.39965
head 2.27867 -7.96888 3.97165
lclavicle 2.84897e-14 5.81129e-15 0
lhumerus -71.5226 -19.8983 107.054
lradius 100.392 0 0
lwrist 51.1971 0 0
lhand -9.44503 43.8718 0
lfingers 7.12502 0 0
lthumb 16.5184 73.1938 0
rclavicle 2.84897e-14 5.81129e-15 0
rhumerus 50.5228 -7.3681 -61.1952
rradius 14.4247 0 0
rwrist 20.9029 0 0
rhand -23.7334 -36.2392 0
rfingers 7.12502 0 0
rthumb 2.77835 -66.7073 0
412
root 7.39118 13.7341 -34.0463 156.586 74.0139 149.734
lfemur 13.6586 -2.6333 -8.09114
ltibia 32.5331 0 0
lfoot -23.2356 32.353 0
ltoes -22.7691 0 0
rfemur -67.4111 -15.6703 8.06314
rtibia 81.2868 0 0
rfoot -13.9082 13.8471 0
rtoes 1.12694 0 0
lowerback 9.00348 5.26616 -9.94243
upperback -2.42922 5.763 -1.56212
thorax -8.59699 3.27073 2.84184
lowerneck 0.141357 -11.8093 -10.7644
upperneck 2.33632 -15.9644 9.41311
head 2.2669 -7.95943 3.97752
lclavicle 2.71566e-14 5.00896e-15 0
lhumerus -71.6196 -19.8959 107.117
lradius 100.394 0 0
lwrist 51.2493 0 0
lhand -9.46386 43.8764 0
lfingers 7.12502 0 0
lthumb 16.5003 73.1996 0
rclavicle 2.71566e-14 5.00896e-15 0
rhumerus 50.5462 -7.42159 -61.1774
rradius 14.2248 0 0
rwrist 20.8824 0 0
rhand -23.839 -36.3006 0
rfingers 7.12502 0 0
rthumb 2.67826 -66.7915 0
413
root 7.3895 13.7334 -34.042 156.817 73.9689 149.96
lfemur 13.286 -2.66789 -7.95506
ltibia 33.1828 0 0
lfoot -23.2878 32.3509 0
ltoes -22.405 0 0
rfemur -67.3958 -15.6389 8.09383
rtibia 81.2672 0 0
rfoot -13.8542 13.872 0
rtoes 0.746573 0 0
lowerback 9.03821 5.24948 -9.82886
upperback -2.42559 5.75039 -1.54018
thorax -8.60405 3.25928 2.802
lowerneck 0.12738 -11.7996 -10.767
upperneck 2.29266 -15.9481 9.42881
head 2.25533 -7.95075 3.98423
lclavicle 2.58186e-14 4.19966e-15 0
lhumerus -71.7049 -19.9009 107.178
lradius 100.393 0 0
lwrist 51.2952 0 0
lhand -9.48295 43.8776 0
lfingers 7.12502 0 0
lthumb 16.4819 73.2022 0
rclavicle 2.58186e-14 4.19966e-15 0
rhumerus 50.5637 -7.46497 -61.1506
rradius 14.0581 0 0
rwrist 20.8448 0 0
rhand -23.9294 -36.356 0
rfingers 7.12502 0 0
rthumb 2.59249 -66.8666 0
414
root 7.38545 13.7333 -34.0388 157.093 73.9288 150.235
lfemur 12.9052 -2.70504 -7.82439
ltibia 33.8408 0 0
lfoot -23.3415 32.3507 0
ltoes -22.0413 0 0
rfemur -67.3735 -15.6029 8.12674
rtibia 81.2277 0 0
rfoot -13.796 13.8859 0
rtoes 0.376415 0 0
lowerback 9.07599 5.23015 -9.71576
upperback -2.42069 5.7342 -1.51574
thorax -8.61084 3.24612 2.76592
lowerneck 0.115275 -11.7909 -10.7714
upperneck 2.24885 -15.9334 9.44692
head 2.24404 -7.94296 3.99185
lclavicle 2.44832e-14 3.38627e-15 0
lhumerus -71.7769 -19.914 107.235
lradius 100.39 0 0
lwrist 51.3339 0 0
lhand -9.50198 43.8756 0
lfingers 7.12502 0 0
lthumb 16.4635 73.2015 0
rclavicle 2.44832e-14 3.38627e-15 0
rhumerus 50.5749 -7.49728 -61.114
rradius 13.9284 0 0
rwrist 20.7885 0 0
rhand -24.0026 -36.4049 0
rfingers 7.12502 0 0
rthumb 2.52313 -66.9316 0
415
root 7.37889 13.7337 -34.0369 157.419 73.8939 150.562
lfemur 12.5168 -2.74479 -7.69999
ltibia 34.5053 0 0
lfoot -23.3964 32.3526 0
ltoes -21.6799 0 0
rfemur -67.3438 -15.562 8.16193
rtibia 81.167 0 0
rfoot -13.7341 13.8874 0
rtoes 0.017912 0 0
lowerback 9.11683 5.20799 -9.60352
upperback -2.41448 5.71417 -1.48868
thorax -8.61726 3.23115 2.73402
lowerneck 0.105307 -11.7833 -10.7775
upperneck 2.20506 -15.9207 9.46764
head 2.23312 -7.93622 4.00045
lclavicle 2.31574e-14 2.57172e-15 0
lhumerus -71.834 -19.9361 107.289
lradius 100.384 0 0
lwrist 51.3645 0 0
lhand -9.52065 43.8702 0
lfingers 7.12502 0 0
lthumb 16.4455 73.1973 0
rclavicle 2.31574e-14 2.57172e-15 0
rhumerus 50.5789 -7.51754 -61.0668
rradius 13.8396 0 0
rwrist 20.7116 0 0
rhand -24.0564 -36.4463 0
rfingers 7.12502 0 0
rthumb 2.47226 -66.9853 0
416
root 7.3697 13.7347 -34.0363 157.797 73.8648 150.944
lfemur 12.1216 -2.78719 -7.58267
ltibia 35.1745 0 0
lfoot -23.4521 32.3564 0
ltoes -21.3222 0 0
rfemur -67.3063 -15.5161 8.19947
rtibia 81.0841 0 0
rfoot -13.6687 13.8752 0
rtoes -0.327489 0 0
lowerback 9.16075 5.18282 -9.49252
upperback -2.40689 5.69005 -1.45889
thorax -8.62325 3.21428 2.70673
lowerneck 0.0977391 -11.777 -10.7857
upperneck 2.16148 -15.9102 9.49115
head 2.22263 -7.93066 4.01007
lclavicle 2.18488e-14 1.75891e-15 0
lhumerus -71.8746 -19.9679 107.338
lradius 100.375 0 0
lwrist 51.3861 0 0
lhand -9.53865 43.8613 0
lfingers 7.12502 0 0
lthumb 16.4282 73.1897 0
rclavicle 2.18488e-14 1.75891e-15 0
rhumerus 50.5753 -7.52478 -61.0082
rradius 13.7953 0 0
rwrist 20.6124 0 0
rhand -24.0884 -36.4797 0
rfingers 7.12502 0 0
rthumb 2.44196 -67.0266 0
417
root 7.35774 13.7363 -34.0372 158.231 73.8419 151.384
lfemur 11.7203 -2.83229 -7.47327
ltibia 35.8466 0 0
lfoot -23.5084 32.3624 0
ltoes -20.9701 0 0
rfemur -67.2605 -15.4648 8.23941
rtibia 80.9777 0 0
rfoot -13.6003 13.8479 0
rtoes -0.65834 0 0
lowerback 9.20776 5.15447 -9.38315
upperback -2.39789 5.66157 -1.42624
thorax -8.62872 3.19539 2.68446
lowerneck 0.0928363 -11.7722 -10.7959
upperneck 2.11827 -15.9021 9.51763
head 2.21265 -7.92641 4.0208
lclavicle 2.05645e-14 9.5073e-16 0
lhumerus -71.8971 -20.0102 107.382
lradius 100.363 0 0
lwrist 51.3977 0 0
lhand -9.55566 43.849 0
lfingers 7.12502 0 0
lthumb 16.4118 73.1785 0
rclavicle 2.05645e-14 9.5073e-16 0
rhumerus 50.5633 -7.51804 -60.9372
rradius 13.7995 0 0
rwrist 20.4891 0 0
rhand -24.0967 -36.5043 0
rfingers 7.12502 0 0
rthumb 2.43433 -67.0546 0
418
root 7.34287 13.7385 -34.0397 158.725 73.8258 151.886
lfemur 11.3137 -2.88015 -7.37262
ltibia 36.5199 0 0
lfoot -23.565 32.3705 0
ltoes -20.625 0 0
rfemur -67.2063 -15.4079 8.28184
rtibia 80.8468 0 0
rfoot -13.5294 13.8042 0
rtoes -0.973196 0 0
lowerback 9.25786 5.12276 -9.27579
upperback -2.38742 5.62849 -1.39061
thorax -8.6336 3.17438 2.66763
lowerneck 0.0908626 -11.769 -10.8083
upperneck 2.0756 -15.8968 9.54727
head 2.20327 -7.92363 4.03268
lclavicle 1.93118e-14 1.50101e-16 0
lhumerus -71.9001 -20.0638 107.42
lradius 100.347 0 0
lwrist 51.3985 0 0
lhand -9.57138 43.8332 0
lfingers 7.12502 0 0
lthumb 16.3967 73.1637 0
rclavicle 1.93118e-14 1.50101e-16 0
rhumerus 50.5423 -7.49635 -60.8531
rradius 13.8559 0 0
rwrist 20.34 0 0
rhand -24.0789 -36.5194 0
rfingers 7.12502 0 0
rthumb 2.45143 -67.068 0
419
root 7.32498 13.7414 -34.0439 159.282 73.8169 152.455
lfemur 10.9023 -2.9308 -7.28155
ltibia 37.1925 0 0
lfoot -23.6217 32.3809 0
ltoes -20.2888 0 0
rfemur -67.143 -15.3451 8.3268
rtibia 80.69 0 0
rfoot -13.4561 13.7429 0
rtoes -1.27061 0 0
lowerback 9.31107 5.08751 -9.17083
upperback -2.37544 5.59055 -1.35188
thorax -8.63781 3.15114 2.65667
lowerneck 0.0920825 -11.7676 -10.8232
upperneck 2.03366 -15.8944 9.58025
head 2.19455 -7.92245 4.04579
lclavicle 1.8098e-14 -6.40078e-16 0
lhumerus -71.882 -20.1295 107.453
lradius 100.328 0 0
lwrist 51.3876 0 0
lhand -9.58551 43.8138 0
lfingers 7.12502 0 0
lthumb 16.383 73.1451 0
rclavicle 1.8098e-14 -6.40078e-16 0
rhumerus 50.5118 -7.45874 -60.7549
rradius 13.9683 0 0
rwrist 20.1632 0 0
rhand -24.0329 -36.5244 0
rfingers 7.12502 0 0
rthumb 2.49537 -67.0658 0
420
root 7.30392 13.745 -34.05 159.906 73.8156 153.092
lfemur 10.4871 -2.9843 -7.20091
ltibia 37.8627 0 0
lfoot -23.678 32.3934 0
ltoes -19.963 0 0
rfemur -67.0704 -15.2762 8.37436
rtibia 80.5064 0 0
rfoot -13.3811 13.6625 0
rtoes -1.54913 0 0
lowerback 9.3674 5.04853 -9.06866
upperback -2.36188 5.54749 -1.30994
thorax -8.64127 3.12558 2.65199
lowerneck 0.0967603 -11.7681 -10.8406
upperneck 1.9926 -15.8953 9.61677
head 2.18657 -7.92301 4.06019
lclavicle 1.69304e-14 -1.4169e-15 0
lhumerus -71.8411 -20.2081 107.48
lradius 100.304 0 0
lwrist 51.3641 0 0
lhand -9.59772 43.7909 0
lfingers 7.12502 0 0
lthumb 16.3713 73.1228 0
rclavicle 1.69304e-14 -1.4169e-15 0
rhumerus 50.471 -7.40423 -60.642
rradius 14.1406 0 0
rwrist 19.9571 0 0
rhand -23.9564 -36.5183 0
rfingers 7.12502 0 0
rthumb 2.56822 -67.047 0
421
root 7.27957 13.7493 -34.0581 160.6 73.8225 153.803
lfemur 10.0686 -3.0407 -7.13151
ltibia 38.5287 0 0
lfoot -23.7338 32.4084 0
ltoes -19.6494 0 0
rfemur -66.9881 -15.2008 8.42459
rtibia 80.2946 0 0
rfoot -13.3046 13.5617 0
rtoes -1.80732 0 0
lowerback 9.42687 5.00566 -8.96966
upperback -2.34671 5.49905 -1.26466
thorax -8.6439 3.09758 2.65402
lowerneck 0.10516 -11.7708 -10.8607
upperneck 1.95262 -15.8997 9.65699
head 2.17941 -7.92546 4.07593
lclavicle 1.58163e-14 -2.17746e-15 0
lhumerus -71.7759 -20.3003 107.499
lradius 100.275 0 0
lwrist 51.327 0 0
lhand -9.60772 43.7642 0
lfingers 7.12502 0 0
lthumb 16.3616 73.0967 0
rclavicle 1.58163e-14 -2.17746e-15 0
rhumerus 50.4193 -7.33186 -60.5133
rradius 14.3765 0 0
rwrist 19.7197 0 0
rhand -23.8474 -36.5007 0
rfingers 7.12502 0 0
rthumb 2.67207 -67.0103 0
